Coordinates
version=1
nRows=24
nColumns=24
inDegrees=yes

Units are S.I. units (second, meters, Newtons, ...)
Angles are in degrees.

endheader
time	pelvis_tilt	pelvis_list	pelvis_rotation	pelvis_tx	pelvis_ty	pelvis_tz	hip_flexion_r	hip_adduction_r	hip_rotation_r	knee_angle_r	ankle_angle_r	subtalar_angle_r	mtp_angle_r	hip_flexion_l	hip_adduction_l	hip_rotation_l	knee_angle_l	ankle_angle_l	subtalar_angle_l	mtp_angle_l	lumbar_extension	lumbar_bending	lumbar_rotation
      0.92466667	     -4.65358371	      3.27181075	     -0.33251117	     -0.07008770	      1.05749798	      0.30670877	     -7.04799203	     -2.49234530	     -4.14621666	    -12.30942705	     18.23914582	      2.07396898	     -0.56628019	     27.28393158	      2.32088440	     -2.70040304	    -12.28164430	      7.81026534	      5.09029923	      6.20133190	     -6.52183307	     -0.50179297	      2.71013490
      0.92883333	     -4.58966011	      3.24654428	     -0.44090523	     -0.06429236	      1.05651799	      0.30636873	     -7.21189777	     -2.55260752	     -4.20673763	    -12.82312348	     18.41347971	      2.42801495	     -0.42106057	     27.21194668	      2.34755765	     -2.52724017	    -12.35359161	      7.74532056	      4.94664980	      6.13158426	     -6.56740047	     -0.51239259	      2.74051156
      0.93300000	     -4.54845830	      3.20065812	     -0.55528063	     -0.05849438	      1.05553511	      0.30607491	     -7.35564501	     -2.57487044	     -4.09392702	    -13.31894168	     18.47264528	      2.47219727	     -0.38313804	     27.19203377	      2.34007360	     -2.42722124	    -12.56264187	      7.69366592	      4.90393418	      6.11715948	     -6.59164356	     -0.49080682	      2.73312616
      0.93716667	     -4.45367596	      3.18786981	     -0.66473764	     -0.05266376	      1.05467544	      0.30573006	     -7.51309063	     -2.65883627	     -4.15777538	    -13.91794376	     18.65001750	      2.88811998	     -0.18450079	     27.08367499	      2.38506131	     -2.23896247	    -12.77678961	      7.55974870	      4.69281534	      6.05386937	     -6.65862715	     -0.53810632	      2.74446536
      0.94133333	     -4.40679249	      3.15722417	     -0.77525653	     -0.04681899	      1.05376660	      0.30540215	     -7.60639160	     -2.71524535	     -4.11925260	    -14.54009335	     18.73803527	      3.11427885	      0.02840638	     27.04444138	      2.40562343	     -2.07993074	    -13.09661881	      7.41885561	      4.51928101	      5.99745539	     -6.66941651	     -0.54870101	      2.73390072
      0.94550000	     -4.37042376	      3.13457296	     -0.85756293	     -0.04094214	      1.05287980	      0.30500110	     -7.67005177	     -2.78475882	     -4.13793072	    -15.20396904	     18.70367884	      3.29274315	      1.87772026	     27.00080781	      2.46134037	     -1.80345539	    -13.44186866	      7.18769662	      4.13516676	      5.60547360	     -6.64402787	     -0.55551059	      2.67995279
      0.94966667	     -4.23113686	      3.12612302	     -0.96462062	     -0.03507361	      1.05218932	      0.30467859	     -7.81950681	     -2.87613548	     -4.14522617	    -15.91651646	     18.72634057	      3.54698493	      2.01980240	     26.88109337	      2.49496840	     -1.77511215	    -13.91808292	      7.06854008	      4.16949041	      5.58713394	     -6.77399533	     -0.62256310	      2.68344265
      0.95383333	     -4.16999637	      3.09451668	     -1.06609672	     -0.02921085	      1.05142575	      0.30431712	     -7.85381771	     -2.94344432	     -4.11234078	    -16.68818668	     18.71568749	      3.79535489	      2.18132501	     26.83636908	      2.51960673	     -1.62166722	    -14.42167401	      6.86152510	      3.98389730	      5.56867810	     -6.80263913	     -0.64110456	      2.65257786
      0.95800000	     -4.09976340	      3.07451770	     -1.14629786	     -0.02332104	      1.05070979	      0.30390542	     -7.87134257	     -3.03087775	     -4.14613249	    -17.52199116	     18.65075430	      4.07082071	      2.39231489	     26.78165788	      2.56703591	     -1.45434885	    -14.96581296	      6.63532146	      3.77099548	      5.54918972	     -6.83231837	     -0.67610107	      2.60463274
      0.96216667	     -4.04518671	      3.05893554	     -1.22588935	     -0.01741731	      1.05002025	      0.30349298	     -7.84250403	     -3.12695412	     -4.17804406	    -18.41145084	     18.53875346	      4.33539059	      2.64721139	     26.74327764	      2.61779242	     -1.28843999	    -15.54758939	      6.39907098	      3.54167754	      5.52849604	     -6.83895989	     -0.72008343	      2.54817413
      0.96633333	     -3.95982963	      3.04991973	     -1.29223240	     -0.01153062	      1.04944135	      0.30303903	     -7.81248374	     -3.24005731	     -4.26188691	    -19.36819616	     18.38362666	      4.62731697	      3.05076477	     26.66427606	      2.68646053	     -1.08522839	    -16.13944009	      6.16398926	      3.29297414	      5.49791562	     -6.89072450	     -0.78153023	      2.47441252
      0.97050000	     -3.90678941	      3.03820794	     -1.35645125	     -0.00562224	      1.04885102	      0.30257146	     -7.71340788	     -3.35512202	     -4.34188248	    -20.39194107	     18.18182502	      4.92382749	      3.54289135	     26.62677198	      2.74673880	     -0.92580419	    -16.77337578	      5.93487439	      3.04120947	      5.46047378	     -6.87820279	     -0.82481031	      2.39484171
      0.97466667	     -3.83227008	      3.01093917	     -1.40996658	      0.00026325	      1.04838170	      0.30210995	     -7.62779598	     -3.44403449	     -4.36302550	    -21.40670494	     17.74504116	      4.95757234	      8.49319576	     26.57148994	      2.79164327	     -0.76673668	    -17.44005434	      5.73910728	      2.83244024	      5.09447721	     -6.91946813	     -0.87550268	      2.32827150
      0.97883333	     -3.76925031	      2.98644360	     -1.46286650	      0.00613348	      1.04792078	      0.30161796	     -7.47411426	     -3.55433248	     -4.45310632	    -22.54212890	     17.41839725	      5.25960855	      8.55150121	     26.53290905	      2.83499096	     -0.64195075	    -18.13210804	      5.58981228	      2.67651142	      5.08633179	     -6.94667138	     -0.91985679	      2.25175694
      0.98300000	     -3.73230758	      2.97320736	     -1.50906974	      0.01201708	      1.04749307	      0.30111300	     -7.25692880	     -3.68179376	     -4.55045913	    -23.74140055	     17.02811798	      5.52382976	      8.65808973	     26.50825478	      2.89391954	     -0.49652722	    -18.80970075	      5.43969858	      2.46719859	      5.07137687	     -6.93558310	     -0.98481094	      2.16050035
      0.98716667	     -3.67586793	      2.97109468	     -1.54018894	      0.01786984	      1.04714037	      0.30055371	     -7.01487810	     -3.83605026	     -4.71396041	    -25.02975429	     16.64465695	      5.79997158	      8.88916771	     26.45216273	      2.97461004	     -0.33091064	    -19.47015977	      5.30468332	      2.23514238	      5.04107460	     -6.94588278	     -1.04023688	      2.04818594
      0.99133333	     -3.62859127	      2.95376964	     -1.57277843	      0.02370312	      1.04685292	      0.30001127	     -6.73938229	     -3.97217712	     -4.82720111	    -26.33047294	     16.03511424	      5.96436283	     12.58634643	     26.40032040	      3.03527693	     -0.17310431	    -20.13301157	      5.22397273	      2.00695964	      4.56085699	     -6.95873123	     -1.10161297	      1.93618383
      0.99550000	     -3.58450913	      2.94322758	     -1.60273836	      0.02953776	      1.04661474	      0.29947383	     -6.42079030	     -4.12411229	     -4.96325083	    -27.70658001	     15.43749443	      6.20276944	     12.63117296	     26.34302180	      3.09448100	     -0.06315955	    -20.78639041	      5.22320124	      1.90100574	      4.55451224	     -6.96706467	     -1.18446244	      1.85189934
      0.99966667	     -3.57169178	      2.94173692	     -1.62176316	      0.03534548	      1.04637164	      0.29889520	     -6.01955166	     -4.29988185	     -5.14474498	    -29.17393419	     14.86506600	      6.44739187	     12.76325432	     26.30855697	      3.16804475	      0.04976615	    -21.41903788	      5.21536687	      1.73130097	      4.53362223	     -6.93121252	     -1.24866709	      1.73398495
      1.00383333	     -3.54677021	      2.94571658	     -1.63930047	      0.04113557	      1.04622046	      0.29832824	     -5.60159932	     -4.48552257	     -5.31613111	    -30.67723088	     14.18934814	      6.65906067	     12.96854967	     26.23960315	      3.24607031	      0.15741891	    -22.01315384	      5.25934995	      1.58471195	      4.50070010	     -6.91546128	     -1.33487787	      1.61341079
      1.00800000	     -3.49889347	      2.94908160	     -1.63780264	      0.04687133	      1.04618270	      0.29772065	     -5.18418225	     -4.67451869	     -5.49437727	    -32.19817246	     13.36192453	      6.76907246	     15.91774112	     26.11673857	      3.34358792	      0.34341175	    -22.54607450	      5.31107115	      1.32133120	      3.99639638	     -6.94673407	     -1.40384390	      1.32144664
      1.01216667	     -3.49678039	      2.95429884	     -1.66645419	      0.05261123	      1.04609456	      0.29720903	     -4.66718403	     -4.87159072	     -5.64396972	    -33.80221626	     12.59754052	      6.90972246	     15.99773368	     26.05022211	      3.39502461	      0.33448496	    -23.10606727	      5.50313356	      1.37192413	      3.98476689	     -6.90689299	     -1.51838443	      1.36532855
      1.01633333	     -3.48960094	      2.97017061	     -1.68196526	      0.05831950	      1.04609202	      0.29668281	     -4.13041053	     -5.08212019	     -5.79762477	    -35.43188479	     11.76547525	      6.99337851	     16.11656564	     25.94301495	      3.47019290	      0.37958577	    -23.59094495	      5.68248842	      1.31607049	      3.96226424	     -6.88409282	     -1.62767370	      1.27488508
      1.02050000	     -3.47924255	      2.99344844	     -1.69593294	      0.06398329	      1.04615301	      0.29615788	     -3.56636349	     -5.30661495	     -5.95161547	    -37.09349158	     10.90046195	      7.03552158	     16.28383552	     25.81105755	      3.55235722	      0.42059116	    -24.03286539	      5.88909085	      1.26234457	      3.92615712	     -6.85999442	     -1.74971548	      1.15939702
